<mxfile host="app.diagrams.net" modified="2021-12-15T16:48:13.000Z" agent="5.0 (Windows NT 10.0; Win64; x64) AppleWebKit/537.36 (KHTML, like Gecko) Chrome/96.0.4664.110 Safari/537.36" etag="b4qarARU7DslaJERYMIB" version="15.9.6" type="github">
  <diagram id="M1ZpAOgNYtpQCYuAGIOQ" name="Page-1">
    <mxGraphModel dx="813" dy="454" grid="1" gridSize="10" guides="1" tooltips="1" connect="1" arrows="1" fold="1" page="1" pageScale="1" pageWidth="827" pageHeight="1169" math="0" shadow="0">
      <root>
        <mxCell id="0" />
        <mxCell id="1" parent="0" />
        <mxCell id="nd5seve6t5SzBQT19v9r-1" value="Data Preprocessing" style="rounded=1;whiteSpace=wrap;html=1;fillColor=#dae8fc;strokeColor=#6c8ebf;" vertex="1" parent="1">
          <mxGeometry x="70" y="65" width="120" height="30" as="geometry" />
        </mxCell>
        <mxCell id="nd5seve6t5SzBQT19v9r-2" value="Feature Representations" style="rounded=1;whiteSpace=wrap;html=1;fillColor=#dae8fc;strokeColor=#6c8ebf;" vertex="1" parent="1">
          <mxGeometry x="250" y="65" width="100" height="40" as="geometry" />
        </mxCell>
        <mxCell id="nd5seve6t5SzBQT19v9r-3" value="Clustering Methods" style="rounded=1;whiteSpace=wrap;html=1;fillColor=#dae8fc;strokeColor=#6c8ebf;" vertex="1" parent="1">
          <mxGeometry x="414" y="65" width="116.5" height="30" as="geometry" />
        </mxCell>
        <mxCell id="nd5seve6t5SzBQT19v9r-4" value="Evaluation Measures" style="rounded=1;whiteSpace=wrap;html=1;fillColor=#dae8fc;strokeColor=#6c8ebf;" vertex="1" parent="1">
          <mxGeometry x="590" y="65" width="120" height="30" as="geometry" />
        </mxCell>
        <mxCell id="nd5seve6t5SzBQT19v9r-5" value="&lt;font style=&quot;font-size: 11px&quot;&gt;Non-alphabet removal&lt;/font&gt;" style="rounded=1;whiteSpace=wrap;html=1;fillColor=#ffe6cc;strokeColor=#d79b00;" vertex="1" parent="1">
          <mxGeometry x="98" y="120" width="102" height="35" as="geometry" />
        </mxCell>
        <mxCell id="nd5seve6t5SzBQT19v9r-6" value="&lt;font style=&quot;font-size: 11px&quot;&gt;Tokenization&lt;/font&gt;" style="rounded=1;whiteSpace=wrap;html=1;fillColor=#ffe6cc;strokeColor=#d79b00;" vertex="1" parent="1">
          <mxGeometry x="98" y="167" width="102" height="25" as="geometry" />
        </mxCell>
        <mxCell id="nd5seve6t5SzBQT19v9r-7" value="&lt;font style=&quot;font-size: 11px&quot;&gt;Stop-words removal&lt;/font&gt;" style="rounded=1;whiteSpace=wrap;html=1;fillColor=#ffe6cc;strokeColor=#d79b00;" vertex="1" parent="1">
          <mxGeometry x="98" y="205" width="102" height="30" as="geometry" />
        </mxCell>
        <mxCell id="nd5seve6t5SzBQT19v9r-8" value="&lt;font style=&quot;font-size: 11px&quot;&gt;Stemming&lt;/font&gt;" style="rounded=1;whiteSpace=wrap;html=1;fillColor=#ffe6cc;strokeColor=#d79b00;" vertex="1" parent="1">
          <mxGeometry x="98" y="247" width="102" height="25" as="geometry" />
        </mxCell>
        <mxCell id="nd5seve6t5SzBQT19v9r-9" value="&lt;font style=&quot;font-size: 11px&quot;&gt;Lemmatization&lt;/font&gt;" style="rounded=1;whiteSpace=wrap;html=1;fillColor=#ffe6cc;strokeColor=#d79b00;" vertex="1" parent="1">
          <mxGeometry x="98" y="290" width="102" height="23" as="geometry" />
        </mxCell>
        <mxCell id="nd5seve6t5SzBQT19v9r-10" value="&lt;font style=&quot;font-size: 11px&quot;&gt;TF-IDF&lt;/font&gt;" style="rounded=1;whiteSpace=wrap;html=1;fillColor=#ffe6cc;strokeColor=#d79b00;" vertex="1" parent="1">
          <mxGeometry x="280" y="120" width="70" height="20" as="geometry" />
        </mxCell>
        <mxCell id="nd5seve6t5SzBQT19v9r-11" value="&lt;font style=&quot;font-size: 11px&quot;&gt;Doc2Vec&lt;/font&gt;" style="rounded=1;whiteSpace=wrap;html=1;fillColor=#ffe6cc;strokeColor=#d79b00;" vertex="1" parent="1">
          <mxGeometry x="280" y="155" width="70" height="20" as="geometry" />
        </mxCell>
        <mxCell id="nd5seve6t5SzBQT19v9r-12" value="&lt;font style=&quot;font-size: 11px&quot;&gt;Bag of Words&lt;/font&gt;" style="rounded=1;whiteSpace=wrap;html=1;fillColor=#ffe6cc;strokeColor=#d79b00;" vertex="1" parent="1">
          <mxGeometry x="280" y="195" width="70" height="20" as="geometry" />
        </mxCell>
        <mxCell id="nd5seve6t5SzBQT19v9r-13" value="&lt;font style=&quot;font-size: 11px&quot;&gt;Sentence BERT&lt;/font&gt;" style="rounded=1;whiteSpace=wrap;html=1;fillColor=#ffe6cc;strokeColor=#d79b00;" vertex="1" parent="1">
          <mxGeometry x="280" y="235" width="70" height="35" as="geometry" />
        </mxCell>
        <mxCell id="nd5seve6t5SzBQT19v9r-14" value="&lt;font style=&quot;font-size: 11px&quot;&gt;k-means&lt;/font&gt;" style="rounded=1;whiteSpace=wrap;html=1;fillColor=#ffe6cc;strokeColor=#d79b00;" vertex="1" parent="1">
          <mxGeometry x="460" y="120" width="70" height="20" as="geometry" />
        </mxCell>
        <mxCell id="nd5seve6t5SzBQT19v9r-15" value="&lt;span style=&quot;font-size: 11px&quot;&gt;LDA&lt;/span&gt;" style="rounded=1;whiteSpace=wrap;html=1;fillColor=#ffe6cc;strokeColor=#d79b00;" vertex="1" parent="1">
          <mxGeometry x="460" y="155" width="70" height="20" as="geometry" />
        </mxCell>
        <mxCell id="nd5seve6t5SzBQT19v9r-16" value="&lt;font style=&quot;font-size: 11px&quot;&gt;LSI&lt;/font&gt;" style="rounded=1;whiteSpace=wrap;html=1;fillColor=#ffe6cc;strokeColor=#d79b00;" vertex="1" parent="1">
          <mxGeometry x="460" y="190" width="70" height="20" as="geometry" />
        </mxCell>
        <mxCell id="nd5seve6t5SzBQT19v9r-17" value="&lt;font style=&quot;font-size: 11px&quot;&gt;NMF&lt;/font&gt;" style="rounded=1;whiteSpace=wrap;html=1;fillColor=#ffe6cc;strokeColor=#d79b00;" vertex="1" parent="1">
          <mxGeometry x="460" y="225" width="70" height="20" as="geometry" />
        </mxCell>
        <mxCell id="nd5seve6t5SzBQT19v9r-18" value="&lt;font style=&quot;font-size: 11px&quot;&gt;BERTopic&lt;/font&gt;" style="rounded=1;whiteSpace=wrap;html=1;fillColor=#ffe6cc;strokeColor=#d79b00;" vertex="1" parent="1">
          <mxGeometry x="460" y="261" width="70" height="20" as="geometry" />
        </mxCell>
        <mxCell id="nd5seve6t5SzBQT19v9r-19" value="&lt;font style=&quot;font-size: 11px&quot;&gt;Adjusted Random Index (ARI)&lt;/font&gt;" style="rounded=1;whiteSpace=wrap;html=1;fillColor=#ffe6cc;strokeColor=#d79b00;" vertex="1" parent="1">
          <mxGeometry x="626" y="119" width="110" height="30" as="geometry" />
        </mxCell>
        <mxCell id="nd5seve6t5SzBQT19v9r-21" value="&lt;font style=&quot;font-size: 11px&quot;&gt;Adjusted Mutual Information (AMI)&lt;/font&gt;" style="rounded=1;whiteSpace=wrap;html=1;fillColor=#ffe6cc;strokeColor=#d79b00;" vertex="1" parent="1">
          <mxGeometry x="626" y="175" width="110" height="30" as="geometry" />
        </mxCell>
        <mxCell id="nd5seve6t5SzBQT19v9r-22" value="&lt;font style=&quot;font-size: 11px&quot;&gt;Normalized Mutual Information (NMI)&lt;/font&gt;" style="rounded=1;whiteSpace=wrap;html=1;fillColor=#ffe6cc;strokeColor=#d79b00;" vertex="1" parent="1">
          <mxGeometry x="626" y="235" width="110" height="30" as="geometry" />
        </mxCell>
        <mxCell id="nd5seve6t5SzBQT19v9r-23" value="" style="endArrow=none;html=1;rounded=0;entryX=0.065;entryY=0.948;entryDx=0;entryDy=0;entryPerimeter=0;" edge="1" parent="1">
          <mxGeometry width="50" height="50" relative="1" as="geometry">
            <mxPoint x="78" y="302" as="sourcePoint" />
            <mxPoint x="77.80000000000007" y="95.43999999999994" as="targetPoint" />
          </mxGeometry>
        </mxCell>
        <mxCell id="nd5seve6t5SzBQT19v9r-24" value="" style="endArrow=none;html=1;rounded=0;entryX=0.065;entryY=0.948;entryDx=0;entryDy=0;entryPerimeter=0;" edge="1" parent="1">
          <mxGeometry width="50" height="50" relative="1" as="geometry">
            <mxPoint x="260" y="250" as="sourcePoint" />
            <mxPoint x="260.00000000000006" y="104.99999999999994" as="targetPoint" />
          </mxGeometry>
        </mxCell>
        <mxCell id="nd5seve6t5SzBQT19v9r-26" value="" style="endArrow=none;html=1;rounded=0;entryX=0.065;entryY=0.948;entryDx=0;entryDy=0;entryPerimeter=0;" edge="1" parent="1">
          <mxGeometry width="50" height="50" relative="1" as="geometry">
            <mxPoint x="430" y="270" as="sourcePoint" />
            <mxPoint x="430" y="94.99999999999989" as="targetPoint" />
          </mxGeometry>
        </mxCell>
        <mxCell id="nd5seve6t5SzBQT19v9r-27" value="" style="endArrow=none;html=1;rounded=0;entryX=0.065;entryY=0.948;entryDx=0;entryDy=0;entryPerimeter=0;" edge="1" parent="1">
          <mxGeometry width="50" height="50" relative="1" as="geometry">
            <mxPoint x="600" y="250" as="sourcePoint" />
            <mxPoint x="600" y="94.99999999999989" as="targetPoint" />
          </mxGeometry>
        </mxCell>
        <mxCell id="nd5seve6t5SzBQT19v9r-28" value="" style="endArrow=classic;html=1;rounded=0;" edge="1" parent="1">
          <mxGeometry width="50" height="50" relative="1" as="geometry">
            <mxPoint x="78" y="137" as="sourcePoint" />
            <mxPoint x="98" y="137" as="targetPoint" />
          </mxGeometry>
        </mxCell>
        <mxCell id="nd5seve6t5SzBQT19v9r-29" value="" style="endArrow=classic;html=1;rounded=0;" edge="1" parent="1">
          <mxGeometry width="50" height="50" relative="1" as="geometry">
            <mxPoint x="78" y="180" as="sourcePoint" />
            <mxPoint x="98" y="180" as="targetPoint" />
          </mxGeometry>
        </mxCell>
        <mxCell id="nd5seve6t5SzBQT19v9r-30" value="" style="endArrow=classic;html=1;rounded=0;" edge="1" parent="1">
          <mxGeometry width="50" height="50" relative="1" as="geometry">
            <mxPoint x="78" y="219.72" as="sourcePoint" />
            <mxPoint x="98" y="219.72" as="targetPoint" />
          </mxGeometry>
        </mxCell>
        <mxCell id="nd5seve6t5SzBQT19v9r-32" value="" style="endArrow=classic;html=1;rounded=0;" edge="1" parent="1">
          <mxGeometry width="50" height="50" relative="1" as="geometry">
            <mxPoint x="78" y="259.72" as="sourcePoint" />
            <mxPoint x="98" y="259.72" as="targetPoint" />
          </mxGeometry>
        </mxCell>
        <mxCell id="nd5seve6t5SzBQT19v9r-33" value="" style="endArrow=classic;html=1;rounded=0;" edge="1" parent="1">
          <mxGeometry width="50" height="50" relative="1" as="geometry">
            <mxPoint x="78" y="301.86" as="sourcePoint" />
            <mxPoint x="98" y="301.86" as="targetPoint" />
          </mxGeometry>
        </mxCell>
        <mxCell id="nd5seve6t5SzBQT19v9r-34" value="" style="endArrow=classic;html=1;rounded=0;" edge="1" parent="1">
          <mxGeometry width="50" height="50" relative="1" as="geometry">
            <mxPoint x="260" y="130" as="sourcePoint" />
            <mxPoint x="280" y="130" as="targetPoint" />
          </mxGeometry>
        </mxCell>
        <mxCell id="nd5seve6t5SzBQT19v9r-35" value="" style="endArrow=classic;html=1;rounded=0;" edge="1" parent="1">
          <mxGeometry width="50" height="50" relative="1" as="geometry">
            <mxPoint x="260" y="250.00000000000006" as="sourcePoint" />
            <mxPoint x="280" y="250.00000000000006" as="targetPoint" />
          </mxGeometry>
        </mxCell>
        <mxCell id="nd5seve6t5SzBQT19v9r-36" value="" style="endArrow=classic;html=1;rounded=0;" edge="1" parent="1">
          <mxGeometry width="50" height="50" relative="1" as="geometry">
            <mxPoint x="260" y="204.00000000000006" as="sourcePoint" />
            <mxPoint x="280" y="204.00000000000006" as="targetPoint" />
          </mxGeometry>
        </mxCell>
        <mxCell id="nd5seve6t5SzBQT19v9r-37" value="" style="endArrow=classic;html=1;rounded=0;" edge="1" parent="1">
          <mxGeometry width="50" height="50" relative="1" as="geometry">
            <mxPoint x="260" y="164.86000000000007" as="sourcePoint" />
            <mxPoint x="280" y="164.86000000000007" as="targetPoint" />
          </mxGeometry>
        </mxCell>
        <mxCell id="nd5seve6t5SzBQT19v9r-38" value="" style="endArrow=classic;html=1;rounded=0;entryX=0;entryY=0.5;entryDx=0;entryDy=0;" edge="1" parent="1" target="nd5seve6t5SzBQT19v9r-14">
          <mxGeometry width="50" height="50" relative="1" as="geometry">
            <mxPoint x="430" y="130" as="sourcePoint" />
            <mxPoint x="520" y="140" as="targetPoint" />
          </mxGeometry>
        </mxCell>
        <mxCell id="nd5seve6t5SzBQT19v9r-39" value="" style="endArrow=classic;html=1;rounded=0;entryX=0;entryY=0.5;entryDx=0;entryDy=0;" edge="1" parent="1">
          <mxGeometry width="50" height="50" relative="1" as="geometry">
            <mxPoint x="430" y="165.00000000000006" as="sourcePoint" />
            <mxPoint x="460" y="165.00000000000006" as="targetPoint" />
          </mxGeometry>
        </mxCell>
        <mxCell id="nd5seve6t5SzBQT19v9r-40" value="" style="endArrow=classic;html=1;rounded=0;entryX=0;entryY=0.5;entryDx=0;entryDy=0;" edge="1" parent="1">
          <mxGeometry width="50" height="50" relative="1" as="geometry">
            <mxPoint x="430" y="199.86000000000007" as="sourcePoint" />
            <mxPoint x="460" y="199.86000000000007" as="targetPoint" />
          </mxGeometry>
        </mxCell>
        <mxCell id="nd5seve6t5SzBQT19v9r-41" value="" style="endArrow=classic;html=1;rounded=0;entryX=0;entryY=0.5;entryDx=0;entryDy=0;" edge="1" parent="1">
          <mxGeometry width="50" height="50" relative="1" as="geometry">
            <mxPoint x="430" y="234.72000000000006" as="sourcePoint" />
            <mxPoint x="460" y="234.72000000000006" as="targetPoint" />
          </mxGeometry>
        </mxCell>
        <mxCell id="nd5seve6t5SzBQT19v9r-42" value="" style="endArrow=classic;html=1;rounded=0;entryX=0;entryY=0.5;entryDx=0;entryDy=0;" edge="1" parent="1">
          <mxGeometry width="50" height="50" relative="1" as="geometry">
            <mxPoint x="430" y="270.00000000000006" as="sourcePoint" />
            <mxPoint x="460" y="270.00000000000006" as="targetPoint" />
          </mxGeometry>
        </mxCell>
        <mxCell id="nd5seve6t5SzBQT19v9r-45" value="" style="endArrow=classic;html=1;rounded=0;entryX=0;entryY=0.5;entryDx=0;entryDy=0;" edge="1" parent="1" target="nd5seve6t5SzBQT19v9r-19">
          <mxGeometry width="50" height="50" relative="1" as="geometry">
            <mxPoint x="600" y="134" as="sourcePoint" />
            <mxPoint x="625.23" y="133.82" as="targetPoint" />
          </mxGeometry>
        </mxCell>
        <mxCell id="nd5seve6t5SzBQT19v9r-46" value="" style="endArrow=classic;html=1;rounded=0;entryX=0;entryY=0.5;entryDx=0;entryDy=0;" edge="1" parent="1">
          <mxGeometry width="50" height="50" relative="1" as="geometry">
            <mxPoint x="600" y="188.86" as="sourcePoint" />
            <mxPoint x="626" y="188.86" as="targetPoint" />
          </mxGeometry>
        </mxCell>
        <mxCell id="nd5seve6t5SzBQT19v9r-47" value="" style="endArrow=classic;html=1;rounded=0;entryX=0;entryY=0.5;entryDx=0;entryDy=0;" edge="1" parent="1">
          <mxGeometry width="50" height="50" relative="1" as="geometry">
            <mxPoint x="600" y="250" as="sourcePoint" />
            <mxPoint x="626" y="250" as="targetPoint" />
          </mxGeometry>
        </mxCell>
        <mxCell id="nd5seve6t5SzBQT19v9r-48" value="" style="endArrow=classic;html=1;rounded=0;exitX=1;exitY=0.5;exitDx=0;exitDy=0;" edge="1" parent="1" source="nd5seve6t5SzBQT19v9r-1">
          <mxGeometry width="50" height="50" relative="1" as="geometry">
            <mxPoint x="210" y="100" as="sourcePoint" />
            <mxPoint x="250" y="80" as="targetPoint" />
          </mxGeometry>
        </mxCell>
        <mxCell id="nd5seve6t5SzBQT19v9r-49" value="" style="endArrow=classic;html=1;rounded=0;exitX=1;exitY=0.5;exitDx=0;exitDy=0;entryX=0;entryY=0.5;entryDx=0;entryDy=0;" edge="1" parent="1" target="nd5seve6t5SzBQT19v9r-4">
          <mxGeometry width="50" height="50" relative="1" as="geometry">
            <mxPoint x="531" y="79.83" as="sourcePoint" />
            <mxPoint x="591" y="80" as="targetPoint" />
          </mxGeometry>
        </mxCell>
        <mxCell id="nd5seve6t5SzBQT19v9r-50" value="" style="endArrow=classic;html=1;rounded=0;exitX=1;exitY=0.5;exitDx=0;exitDy=0;entryX=0;entryY=0.5;entryDx=0;entryDy=0;" edge="1" parent="1" target="nd5seve6t5SzBQT19v9r-3">
          <mxGeometry width="50" height="50" relative="1" as="geometry">
            <mxPoint x="350" y="79.83" as="sourcePoint" />
            <mxPoint x="410" y="80" as="targetPoint" />
          </mxGeometry>
        </mxCell>
      </root>
    </mxGraphModel>
  </diagram>
</mxfile>
